<mxfile host="app.diagrams.net" modified="2023-02-10T05:51:07.079Z" agent="5.0 (Windows NT 10.0; Win64; x64) AppleWebKit/537.36 (KHTML, like Gecko) Chrome/108.0.0.0 Safari/537.36 OPR/94.0.0.0 (Edition Yx 05)" etag="R6gLgRGWo8nOyAgiTBGO" version="20.8.19" type="github">
  <diagram name="Страница 1" id="KoeXcXxwSRBXX-UhThoY">
    <mxGraphModel dx="1010" dy="581" grid="1" gridSize="10" guides="1" tooltips="1" connect="1" arrows="1" fold="1" page="1" pageScale="1" pageWidth="827" pageHeight="1169" math="0" shadow="0">
      <root>
        <mxCell id="0" />
        <mxCell id="1" parent="0" />
        <mxCell id="JpxATV4K1BG4y2HD1JIV-2" value="Оформление заявления о правонарушении" style="rounded=0;whiteSpace=wrap;html=1;" vertex="1" parent="1">
          <mxGeometry x="161" y="520" width="160" height="60" as="geometry" />
        </mxCell>
        <mxCell id="JpxATV4K1BG4y2HD1JIV-3" value="Декомпозиция&amp;nbsp;&amp;nbsp;&lt;br&gt;бизнес процесса по криминогенной обстановке&lt;br&gt;" style="text;html=1;strokeColor=none;fillColor=none;align=center;verticalAlign=middle;whiteSpace=wrap;rounded=0;" vertex="1" parent="1">
          <mxGeometry x="300" y="360" width="186" height="30" as="geometry" />
        </mxCell>
        <mxCell id="JpxATV4K1BG4y2HD1JIV-5" value="" style="endArrow=classic;html=1;rounded=0;entryX=0;entryY=1;entryDx=0;entryDy=0;" edge="1" parent="1" target="JpxATV4K1BG4y2HD1JIV-2">
          <mxGeometry width="50" height="50" relative="1" as="geometry">
            <mxPoint x="161" y="700" as="sourcePoint" />
            <mxPoint x="561" y="690" as="targetPoint" />
          </mxGeometry>
        </mxCell>
        <mxCell id="JpxATV4K1BG4y2HD1JIV-6" value="Дежурный" style="edgeLabel;html=1;align=center;verticalAlign=middle;resizable=0;points=[];" vertex="1" connectable="0" parent="JpxATV4K1BG4y2HD1JIV-5">
          <mxGeometry x="-0.17" y="1" relative="1" as="geometry">
            <mxPoint as="offset" />
          </mxGeometry>
        </mxCell>
        <mxCell id="JpxATV4K1BG4y2HD1JIV-7" value="" style="endArrow=classic;html=1;rounded=0;entryX=0.5;entryY=1;entryDx=0;entryDy=0;" edge="1" parent="1" target="JpxATV4K1BG4y2HD1JIV-2">
          <mxGeometry width="50" height="50" relative="1" as="geometry">
            <mxPoint x="241" y="700" as="sourcePoint" />
            <mxPoint x="561" y="690" as="targetPoint" />
          </mxGeometry>
        </mxCell>
        <mxCell id="JpxATV4K1BG4y2HD1JIV-8" value="Потерпевший" style="edgeLabel;html=1;align=center;verticalAlign=middle;resizable=0;points=[];" vertex="1" connectable="0" parent="JpxATV4K1BG4y2HD1JIV-7">
          <mxGeometry x="-0.1533" y="1" relative="1" as="geometry">
            <mxPoint as="offset" />
          </mxGeometry>
        </mxCell>
        <mxCell id="JpxATV4K1BG4y2HD1JIV-9" value="" style="endArrow=classic;html=1;rounded=0;entryX=0;entryY=0;entryDx=0;entryDy=0;" edge="1" parent="1" target="JpxATV4K1BG4y2HD1JIV-2">
          <mxGeometry width="50" height="50" relative="1" as="geometry">
            <mxPoint x="40" y="520" as="sourcePoint" />
            <mxPoint x="440" y="670" as="targetPoint" />
          </mxGeometry>
        </mxCell>
        <mxCell id="JpxATV4K1BG4y2HD1JIV-28" value="Заявление &lt;br&gt;потерпевшего&lt;br&gt;(клиента)" style="edgeLabel;html=1;align=center;verticalAlign=middle;resizable=0;points=[];" vertex="1" connectable="0" parent="JpxATV4K1BG4y2HD1JIV-9">
          <mxGeometry x="-0.1934" relative="1" as="geometry">
            <mxPoint x="-9" as="offset" />
          </mxGeometry>
        </mxCell>
        <mxCell id="JpxATV4K1BG4y2HD1JIV-10" value="" style="endArrow=classic;html=1;rounded=0;" edge="1" parent="1">
          <mxGeometry width="50" height="50" relative="1" as="geometry">
            <mxPoint x="40" y="580" as="sourcePoint" />
            <mxPoint x="160" y="580" as="targetPoint" />
          </mxGeometry>
        </mxCell>
        <mxCell id="JpxATV4K1BG4y2HD1JIV-29" value="Комплект &lt;br&gt;необходимых&lt;br&gt;&amp;nbsp;документов" style="edgeLabel;html=1;align=center;verticalAlign=middle;resizable=0;points=[];" vertex="1" connectable="0" parent="JpxATV4K1BG4y2HD1JIV-10">
          <mxGeometry x="-0.4367" y="-1" relative="1" as="geometry">
            <mxPoint x="6" y="-1" as="offset" />
          </mxGeometry>
        </mxCell>
        <mxCell id="JpxATV4K1BG4y2HD1JIV-11" value="" style="endArrow=classic;html=1;rounded=0;entryX=0.25;entryY=0;entryDx=0;entryDy=0;" edge="1" parent="1" target="JpxATV4K1BG4y2HD1JIV-2">
          <mxGeometry width="50" height="50" relative="1" as="geometry">
            <mxPoint x="201" y="400" as="sourcePoint" />
            <mxPoint x="440" y="470" as="targetPoint" />
          </mxGeometry>
        </mxCell>
        <mxCell id="JpxATV4K1BG4y2HD1JIV-30" value="Нормативно-&lt;br&gt;правовые&lt;br&gt;&amp;nbsp;акты" style="edgeLabel;html=1;align=center;verticalAlign=middle;resizable=0;points=[];" vertex="1" connectable="0" parent="JpxATV4K1BG4y2HD1JIV-11">
          <mxGeometry x="0.15" y="1" relative="1" as="geometry">
            <mxPoint as="offset" />
          </mxGeometry>
        </mxCell>
        <mxCell id="JpxATV4K1BG4y2HD1JIV-14" value="" style="endArrow=classic;html=1;rounded=0;exitX=1;exitY=0.5;exitDx=0;exitDy=0;" edge="1" parent="1" source="JpxATV4K1BG4y2HD1JIV-2" target="JpxATV4K1BG4y2HD1JIV-15">
          <mxGeometry width="50" height="50" relative="1" as="geometry">
            <mxPoint x="390" y="520" as="sourcePoint" />
            <mxPoint x="410" y="620" as="targetPoint" />
          </mxGeometry>
        </mxCell>
        <mxCell id="JpxATV4K1BG4y2HD1JIV-33" value="Зарегистрированный &lt;br&gt;запрос" style="edgeLabel;html=1;align=center;verticalAlign=middle;resizable=0;points=[];" vertex="1" connectable="0" parent="JpxATV4K1BG4y2HD1JIV-14">
          <mxGeometry x="-0.2279" y="1" relative="1" as="geometry">
            <mxPoint x="9" y="1" as="offset" />
          </mxGeometry>
        </mxCell>
        <mxCell id="JpxATV4K1BG4y2HD1JIV-15" value="Поиск информации для подготовки ответа" style="rounded=0;whiteSpace=wrap;html=1;" vertex="1" parent="1">
          <mxGeometry x="450" y="520" width="120" height="60" as="geometry" />
        </mxCell>
        <mxCell id="JpxATV4K1BG4y2HD1JIV-16" value="" style="endArrow=classic;html=1;rounded=0;entryX=0.167;entryY=1.047;entryDx=0;entryDy=0;entryPerimeter=0;" edge="1" parent="1" target="JpxATV4K1BG4y2HD1JIV-15">
          <mxGeometry width="50" height="50" relative="1" as="geometry">
            <mxPoint x="470" y="680" as="sourcePoint" />
            <mxPoint x="440" y="570" as="targetPoint" />
          </mxGeometry>
        </mxCell>
        <mxCell id="JpxATV4K1BG4y2HD1JIV-39" value="Дежурный&amp;nbsp;" style="edgeLabel;html=1;align=center;verticalAlign=middle;resizable=0;points=[];" vertex="1" connectable="0" parent="JpxATV4K1BG4y2HD1JIV-16">
          <mxGeometry x="-0.2797" y="3" relative="1" as="geometry">
            <mxPoint as="offset" />
          </mxGeometry>
        </mxCell>
        <mxCell id="JpxATV4K1BG4y2HD1JIV-17" value="" style="endArrow=classic;html=1;rounded=0;entryX=0.75;entryY=1;entryDx=0;entryDy=0;" edge="1" parent="1" target="JpxATV4K1BG4y2HD1JIV-15">
          <mxGeometry width="50" height="50" relative="1" as="geometry">
            <mxPoint x="540" y="680" as="sourcePoint" />
            <mxPoint x="440" y="570" as="targetPoint" />
            <Array as="points" />
          </mxGeometry>
        </mxCell>
        <mxCell id="JpxATV4K1BG4y2HD1JIV-40" value="Потерпевший" style="edgeLabel;html=1;align=center;verticalAlign=middle;resizable=0;points=[];" vertex="1" connectable="0" parent="JpxATV4K1BG4y2HD1JIV-17">
          <mxGeometry x="-0.38" y="-1" relative="1" as="geometry">
            <mxPoint as="offset" />
          </mxGeometry>
        </mxCell>
        <mxCell id="JpxATV4K1BG4y2HD1JIV-18" value="" style="endArrow=classic;html=1;rounded=0;entryX=0.25;entryY=0;entryDx=0;entryDy=0;" edge="1" parent="1">
          <mxGeometry width="50" height="50" relative="1" as="geometry">
            <mxPoint x="480" y="400" as="sourcePoint" />
            <mxPoint x="480" y="520" as="targetPoint" />
          </mxGeometry>
        </mxCell>
        <mxCell id="JpxATV4K1BG4y2HD1JIV-37" value="Нормативно-&lt;br&gt;правовые&amp;nbsp;&lt;br&gt;акты" style="edgeLabel;html=1;align=center;verticalAlign=middle;resizable=0;points=[];" vertex="1" connectable="0" parent="JpxATV4K1BG4y2HD1JIV-18">
          <mxGeometry x="0.2133" y="1" relative="1" as="geometry">
            <mxPoint as="offset" />
          </mxGeometry>
        </mxCell>
        <mxCell id="JpxATV4K1BG4y2HD1JIV-20" value="" style="endArrow=classic;html=1;rounded=0;entryX=0.75;entryY=0;entryDx=0;entryDy=0;" edge="1" parent="1" target="JpxATV4K1BG4y2HD1JIV-15">
          <mxGeometry width="50" height="50" relative="1" as="geometry">
            <mxPoint x="540" y="400" as="sourcePoint" />
            <mxPoint x="320" y="500" as="targetPoint" />
          </mxGeometry>
        </mxCell>
        <mxCell id="JpxATV4K1BG4y2HD1JIV-38" value="УК&amp;nbsp; РФ" style="edgeLabel;html=1;align=center;verticalAlign=middle;resizable=0;points=[];" vertex="1" connectable="0" parent="JpxATV4K1BG4y2HD1JIV-20">
          <mxGeometry x="0.25" y="1" relative="1" as="geometry">
            <mxPoint as="offset" />
          </mxGeometry>
        </mxCell>
        <mxCell id="JpxATV4K1BG4y2HD1JIV-21" value="Оформление найденной информации" style="rounded=0;whiteSpace=wrap;html=1;" vertex="1" parent="1">
          <mxGeometry x="660" y="600" width="120" height="60" as="geometry" />
        </mxCell>
        <mxCell id="JpxATV4K1BG4y2HD1JIV-22" value="" style="endArrow=classic;html=1;rounded=0;entryX=0;entryY=0;entryDx=0;entryDy=0;exitX=1;exitY=1;exitDx=0;exitDy=0;" edge="1" parent="1" source="JpxATV4K1BG4y2HD1JIV-15" target="JpxATV4K1BG4y2HD1JIV-21">
          <mxGeometry width="50" height="50" relative="1" as="geometry">
            <mxPoint x="450" y="650" as="sourcePoint" />
            <mxPoint x="500" y="600" as="targetPoint" />
          </mxGeometry>
        </mxCell>
        <mxCell id="JpxATV4K1BG4y2HD1JIV-41" value="Информация" style="edgeLabel;html=1;align=center;verticalAlign=middle;resizable=0;points=[];" vertex="1" connectable="0" parent="JpxATV4K1BG4y2HD1JIV-22">
          <mxGeometry x="-0.3082" relative="1" as="geometry">
            <mxPoint as="offset" />
          </mxGeometry>
        </mxCell>
        <mxCell id="JpxATV4K1BG4y2HD1JIV-24" value="" style="endArrow=classic;html=1;rounded=0;entryX=0.25;entryY=0;entryDx=0;entryDy=0;" edge="1" parent="1" target="JpxATV4K1BG4y2HD1JIV-21">
          <mxGeometry width="50" height="50" relative="1" as="geometry">
            <mxPoint x="690" y="520" as="sourcePoint" />
            <mxPoint x="580" y="600" as="targetPoint" />
          </mxGeometry>
        </mxCell>
        <mxCell id="JpxATV4K1BG4y2HD1JIV-42" value="Нормативно-&lt;br&gt;&amp;nbsp;правовые&lt;br&gt;акты&amp;nbsp;" style="edgeLabel;html=1;align=center;verticalAlign=middle;resizable=0;points=[];" vertex="1" connectable="0" parent="JpxATV4K1BG4y2HD1JIV-24">
          <mxGeometry x="-0.37" y="2" relative="1" as="geometry">
            <mxPoint as="offset" />
          </mxGeometry>
        </mxCell>
        <mxCell id="JpxATV4K1BG4y2HD1JIV-25" value="" style="endArrow=classic;html=1;rounded=0;entryX=0.75;entryY=0;entryDx=0;entryDy=0;" edge="1" parent="1" target="JpxATV4K1BG4y2HD1JIV-21">
          <mxGeometry width="50" height="50" relative="1" as="geometry">
            <mxPoint x="750" y="520" as="sourcePoint" />
            <mxPoint x="580" y="600" as="targetPoint" />
          </mxGeometry>
        </mxCell>
        <mxCell id="JpxATV4K1BG4y2HD1JIV-43" value="УК РФ" style="edgeLabel;html=1;align=center;verticalAlign=middle;resizable=0;points=[];" vertex="1" connectable="0" parent="JpxATV4K1BG4y2HD1JIV-25">
          <mxGeometry x="-0.365" y="1" relative="1" as="geometry">
            <mxPoint as="offset" />
          </mxGeometry>
        </mxCell>
        <mxCell id="JpxATV4K1BG4y2HD1JIV-27" value="" style="endArrow=classic;html=1;rounded=0;exitX=1;exitY=0.5;exitDx=0;exitDy=0;" edge="1" parent="1" source="JpxATV4K1BG4y2HD1JIV-21">
          <mxGeometry width="50" height="50" relative="1" as="geometry">
            <mxPoint x="900" y="645" as="sourcePoint" />
            <mxPoint x="970" y="640" as="targetPoint" />
          </mxGeometry>
        </mxCell>
        <mxCell id="JpxATV4K1BG4y2HD1JIV-45" value="Ответ&lt;br&gt;&amp;nbsp;на запрос &lt;br&gt;потерпевшего(клиента)&lt;br&gt;Дополнительные и&amp;nbsp;&lt;br style=&quot;border-color: var(--border-color);&quot;&gt;исправленные документы" style="edgeLabel;html=1;align=center;verticalAlign=middle;resizable=0;points=[];" vertex="1" connectable="0" parent="JpxATV4K1BG4y2HD1JIV-27">
          <mxGeometry x="0.4467" y="2" relative="1" as="geometry">
            <mxPoint x="-38" y="-5" as="offset" />
          </mxGeometry>
        </mxCell>
        <mxCell id="JpxATV4K1BG4y2HD1JIV-31" value="" style="endArrow=classic;html=1;rounded=0;entryX=0.75;entryY=0;entryDx=0;entryDy=0;" edge="1" parent="1" target="JpxATV4K1BG4y2HD1JIV-2">
          <mxGeometry width="50" height="50" relative="1" as="geometry">
            <mxPoint x="280" y="400" as="sourcePoint" />
            <mxPoint x="520" y="460" as="targetPoint" />
          </mxGeometry>
        </mxCell>
        <mxCell id="JpxATV4K1BG4y2HD1JIV-32" value="УК РФ" style="edgeLabel;html=1;align=center;verticalAlign=middle;resizable=0;points=[];" vertex="1" connectable="0" parent="JpxATV4K1BG4y2HD1JIV-31">
          <mxGeometry x="-0.3133" relative="1" as="geometry">
            <mxPoint as="offset" />
          </mxGeometry>
        </mxCell>
        <mxCell id="JpxATV4K1BG4y2HD1JIV-46" value="" style="endArrow=classic;html=1;rounded=0;entryX=0.063;entryY=0.993;entryDx=0;entryDy=0;entryPerimeter=0;" edge="1" parent="1" target="JpxATV4K1BG4y2HD1JIV-21">
          <mxGeometry width="50" height="50" relative="1" as="geometry">
            <mxPoint x="660" y="760" as="sourcePoint" />
            <mxPoint x="800" y="680" as="targetPoint" />
            <Array as="points">
              <mxPoint x="660" y="720" />
              <mxPoint x="668" y="700" />
            </Array>
          </mxGeometry>
        </mxCell>
        <mxCell id="JpxATV4K1BG4y2HD1JIV-47" value="Дежурный" style="edgeLabel;html=1;align=center;verticalAlign=middle;resizable=0;points=[];" vertex="1" connectable="0" parent="JpxATV4K1BG4y2HD1JIV-46">
          <mxGeometry x="-0.28" y="-2" relative="1" as="geometry">
            <mxPoint as="offset" />
          </mxGeometry>
        </mxCell>
        <mxCell id="JpxATV4K1BG4y2HD1JIV-48" value="" style="endArrow=classic;html=1;rounded=0;entryX=0.5;entryY=1;entryDx=0;entryDy=0;" edge="1" parent="1" target="JpxATV4K1BG4y2HD1JIV-21">
          <mxGeometry width="50" height="50" relative="1" as="geometry">
            <mxPoint x="720" y="770" as="sourcePoint" />
            <mxPoint x="800" y="680" as="targetPoint" />
          </mxGeometry>
        </mxCell>
        <mxCell id="JpxATV4K1BG4y2HD1JIV-49" value="Потерпевший" style="edgeLabel;html=1;align=center;verticalAlign=middle;resizable=0;points=[];" vertex="1" connectable="0" parent="JpxATV4K1BG4y2HD1JIV-48">
          <mxGeometry x="-0.5901" relative="1" as="geometry">
            <mxPoint as="offset" />
          </mxGeometry>
        </mxCell>
        <mxCell id="JpxATV4K1BG4y2HD1JIV-51" value="" style="endArrow=classic;html=1;rounded=0;entryX=0.93;entryY=1.007;entryDx=0;entryDy=0;entryPerimeter=0;" edge="1" parent="1" target="JpxATV4K1BG4y2HD1JIV-21">
          <mxGeometry width="50" height="50" relative="1" as="geometry">
            <mxPoint x="780" y="770" as="sourcePoint" />
            <mxPoint x="800" y="670" as="targetPoint" />
          </mxGeometry>
        </mxCell>
        <mxCell id="JpxATV4K1BG4y2HD1JIV-52" value="Следственный&lt;br&gt;комитет" style="edgeLabel;html=1;align=center;verticalAlign=middle;resizable=0;points=[];" vertex="1" connectable="0" parent="JpxATV4K1BG4y2HD1JIV-51">
          <mxGeometry x="0.2863" relative="1" as="geometry">
            <mxPoint as="offset" />
          </mxGeometry>
        </mxCell>
      </root>
    </mxGraphModel>
  </diagram>
</mxfile>
